<?xml version="1.0" encoding="UTF-8"?>
<svg xmlns="http://www.w3.org/2000/svg" width="1250" height="823" viewBox="0 0 1250 823" role="img" aria-label="Sammanfattning och PDF-rapport">
  <image href="manual-screenshots/screen-04-sammanfattning.png" x="0" y="0" width="1250" height="823"/>
  <rect x="0" y="0" width="1250" height="823" fill="none" stroke="#dfe8dc" stroke-width="2"/>
  <g>
    <line x1="330" y1="98" x2="430" y2="126" stroke="#0c1f27" stroke-width="3" stroke-linecap="round" opacity=".85"/>
    <circle cx="330" cy="98" r="18" fill="#0c1f27"/>
    <text x="330" y="105" font-family="Arial,sans-serif" font-size="20" font-weight="700" fill="#fff" text-anchor="middle">1</text>
    <rect x="430" y="102" width="290" height="36" rx="6" fill="#ffffff" stroke="#0c1f27" stroke-width="2" opacity=".96"/>
    <text x="442" y="126" font-family="Arial,sans-serif" font-size="17" font-weight="700" fill="#102a33">Sammanfattning visar rapporten</text>
  </g>
  <g>
    <line x1="1168" y1="29" x2="925" y2="70" stroke="#0c1f27" stroke-width="3" stroke-linecap="round" opacity=".85"/>
    <circle cx="1168" cy="29" r="18" fill="#0c1f27"/>
    <text x="1168" y="36" font-family="Arial,sans-serif" font-size="20" font-weight="700" fill="#fff" text-anchor="middle">2</text>
    <rect x="925" y="46" width="225" height="36" rx="6" fill="#ffffff" stroke="#0c1f27" stroke-width="2" opacity=".96"/>
    <text x="937" y="70" font-family="Arial,sans-serif" font-size="17" font-weight="700" fill="#102a33">Skriv ut rapporten här</text>
  </g>
  <g>
    <line x1="490" y1="396" x2="565" y2="430" stroke="#0c1f27" stroke-width="3" stroke-linecap="round" opacity=".85"/>
    <circle cx="490" cy="396" r="18" fill="#0c1f27"/>
    <text x="490" y="403" font-family="Arial,sans-serif" font-size="20" font-weight="700" fill="#fff" text-anchor="middle">3</text>
    <rect x="565" y="406" width="250" height="36" rx="6" fill="#ffffff" stroke="#0c1f27" stroke-width="2" opacity=".96"/>
    <text x="577" y="430" font-family="Arial,sans-serif" font-size="17" font-weight="700" fill="#102a33">Projektet visas i rapporten</text>
  </g>
  <g>
    <line x1="442" y1="716" x2="520" y2="755" stroke="#0c1f27" stroke-width="3" stroke-linecap="round" opacity=".85"/>
    <circle cx="442" cy="716" r="18" fill="#0c1f27"/>
    <text x="442" y="723" font-family="Arial,sans-serif" font-size="20" font-weight="700" fill="#fff" text-anchor="middle">4</text>
    <rect x="520" y="731" width="300" height="36" rx="6" fill="#ffffff" stroke="#0c1f27" stroke-width="2" opacity=".96"/>
    <text x="532" y="755" font-family="Arial,sans-serif" font-size="17" font-weight="700" fill="#102a33">Resultatsektion för kundrapport</text>
  </g>
  <g>
    <line x1="585" y1="260" x2="620" y2="310" stroke="#0c1f27" stroke-width="3" stroke-linecap="round" opacity=".85"/>
    <circle cx="585" cy="260" r="18" fill="#0c1f27"/>
    <text x="585" y="267" font-family="Arial,sans-serif" font-size="20" font-weight="700" fill="#fff" text-anchor="middle">5</text>
    <rect x="620" y="286" width="260" height="36" rx="6" fill="#ffffff" stroke="#0c1f27" stroke-width="2" opacity=".96"/>
    <text x="632" y="310" font-family="Arial,sans-serif" font-size="17" font-weight="700" fill="#102a33">Kontrollera layout innan PDF</text>
  </g>
</svg>
