<?xml version="1.0" encoding="UTF-8"?>
<svg xmlns="http://www.w3.org/2000/svg" width="1250" height="823" viewBox="0 0 1250 823" role="img" aria-label="Win/win-vy med affarsnytta och klimatnytta">
  <image href="manual-screenshots/screen-05-winwin.png" x="0" y="0" width="1250" height="823"/>
  <rect x="0" y="0" width="1250" height="823" fill="none" stroke="#dfe8dc" stroke-width="2"/>
  <g>
    <line x1="470" y1="96" x2="545" y2="125" stroke="#0c1f27" stroke-width="3" stroke-linecap="round" opacity=".85"/>
    <circle cx="470" cy="96" r="18" fill="#0c1f27"/>
    <text x="470" y="103" font-family="Arial,sans-serif" font-size="20" font-weight="700" fill="#fff" text-anchor="middle">1</text>
    <rect x="545" y="101" width="190" height="36" rx="6" fill="#ffffff" stroke="#0c1f27" stroke-width="2" opacity=".96"/>
    <text x="557" y="125" font-family="Arial,sans-serif" font-size="17" font-weight="700" fill="#102a33">Win/win är säljvyn</text>
  </g>
  <g>
    <line x1="255" y1="315" x2="420" y2="340" stroke="#0c1f27" stroke-width="3" stroke-linecap="round" opacity=".85"/>
    <circle cx="255" cy="315" r="18" fill="#0c1f27"/>
    <text x="255" y="322" font-family="Arial,sans-serif" font-size="20" font-weight="700" fill="#fff" text-anchor="middle">2</text>
    <rect x="420" y="316" width="290" height="36" rx="6" fill="#ffffff" stroke="#0c1f27" stroke-width="2" opacity=".96"/>
    <text x="432" y="340" font-family="Arial,sans-serif" font-size="17" font-weight="700" fill="#102a33">Huvudbudskap för kunddialog</text>
  </g>
  <g>
    <line x1="512" y1="528" x2="575" y2="585" stroke="#0c1f27" stroke-width="3" stroke-linecap="round" opacity=".85"/>
    <circle cx="512" cy="528" r="18" fill="#0c1f27"/>
    <text x="512" y="535" font-family="Arial,sans-serif" font-size="20" font-weight="700" fill="#fff" text-anchor="middle">3</text>
    <rect x="575" y="561" width="210" height="36" rx="6" fill="#ffffff" stroke="#0c1f27" stroke-width="2" opacity=".96"/>
    <text x="587" y="585" font-family="Arial,sans-serif" font-size="17" font-weight="700" fill="#102a33">Tre starka nyckeltal</text>
  </g>
  <g>
    <line x1="300" y1="694" x2="400" y2="760" stroke="#0c1f27" stroke-width="3" stroke-linecap="round" opacity=".85"/>
    <circle cx="300" cy="694" r="18" fill="#0c1f27"/>
    <text x="300" y="701" font-family="Arial,sans-serif" font-size="20" font-weight="700" fill="#fff" text-anchor="middle">4</text>
    <rect x="400" y="736" width="245" height="36" rx="6" fill="#ffffff" stroke="#0c1f27" stroke-width="2" opacity=".96"/>
    <text x="412" y="760" font-family="Arial,sans-serif" font-size="17" font-weight="700" fill="#102a33">Kort text om affärsnytta</text>
  </g>
  <g>
    <line x1="332" y1="222" x2="430" y2="235" stroke="#0c1f27" stroke-width="3" stroke-linecap="round" opacity=".85"/>
    <circle cx="332" cy="222" r="18" fill="#0c1f27"/>
    <text x="332" y="229" font-family="Arial,sans-serif" font-size="20" font-weight="700" fill="#fff" text-anchor="middle">5</text>
    <rect x="430" y="211" width="270" height="36" rx="6" fill="#ffffff" stroke="#0c1f27" stroke-width="2" opacity=".96"/>
    <text x="442" y="235" font-family="Arial,sans-serif" font-size="17" font-weight="700" fill="#102a33">Projekt och värdeerbjudande</text>
  </g>
</svg>
